<?xml version="1.0" encoding="UTF-8"?>
<svg id="_Слой_1" data-name="Слой 1" xmlns="http://www.w3.org/2000/svg" viewBox="0 0 41.22 53.75">
  <defs>
    <style>
      .cls-1 {
        fill: #d2171b;
      }
    </style>
  </defs>
  <path class="cls-1" d="m20.28,5.28c-3.14,0-5.69,2.55-5.69,5.69s2.55,5.69,5.69,5.69,5.69-2.55,5.69-5.69c0-3.14-2.55-5.69-5.69-5.69Zm.08,9.05c-1.85,0-3.36-1.5-3.36-3.36s1.5-3.36,3.36-3.36,3.36,1.5,3.36,3.36-1.5,3.36-3.36,3.36Z"/>
  <circle class="cls-1" cx="3.63" cy="32.15" r="1.24"/>
  <circle class="cls-1" cx="39.98" cy="32.15" r="1.24"/>
  <circle class="cls-1" cx="32.31" cy="44.02" r="2.97"/>
  <path class="cls-1" d="m21.84.4c0-.22-.18-.4-.4-.4h-2.17c-.22,0-.4.18-.4.4v5.3c0,.22.18.4.4.4h2.17c.22,0,.4-.18.4-.4V.4Z"/>
  <path class="cls-1" d="m39.98,31.89c0-.22-.18-.4-.4-.4h-6.81c-.22,0-.46-.17-.54-.37l-6.85-17.46c-.08-.2-.31-.31-.52-.23l-3.7,1.45c-.2.08-.31.31-.23.52l6.17,15.72c.08.2-.03.37-.25.37h-1.8c-.22,0-.4.18-.4.4v.52c0,.22.18.4.4.4h2.32c.22,0,.46.17.54.37l5.68,14.48c.08.2.14.37.14.37,0,0,0,.02,0,.03s.03.04.03.05c0,.01,0,.03.02.02,0,0,.12.14.26.31l4.12,5.2c.14.17.24.13.24-.09l-.17-6.76c0-.22-.08-.57-.16-.77l-5.05-12.86c-.08-.2.03-.37.25-.37h6.29c.22,0,.4-.18.4-.4v-.5h.01Z"/>
  <path class="cls-1" d="m0,52.07h12.72c.22,0,.4-.18.4-.4v-.69c0-.22-.18-.4-.4-.4h-5.15c-.22,0-.34-.17-.26-.37l6.19-17.09c.07-.21.32-.37.53-.37h5.85c.22,0,.4-.18.4-.4v-.48c0-.22-.18-.4-.4-.4h-5.4c-.22,0-.34-.17-.26-.37l5.73-15.83c.07-.21-.03-.44-.24-.51l-.82-.3c-.21-.07-.44.03-.51.24l-1.08,2.98c-.07.21-.32.37-.53.37h-1.94c-.22,0-.4.18-.4.4v.52c0,.22.18.4.4.4h1.46c.22,0,.34.17.26.37l-.71,1.97c-.07.21-.32.37-.53.37h-4.27c-.22,0-.4.18-.4.4v.69c0,.22.18.4.4.4h3.73c.22,0,.34.17.26.37l-1.01,2.79c-.07.21-.32.37-.53.37h-4.59c-.22,0-.4.18-.4.4v.6c0,.22.18.4.4.4h4.09c.22,0,.34.17.26.37l-.8,2.22c-.07.21-.32.37-.53.37h-7.87c-.22,0-.4.18-.4.4v.48c0,.22.18.4.4.4h7.41c.22,0,.34.17.26.37l-.82,2.26c-.07.21-.32.37-.53.37h-5.58c-.22,0-.4.18-.4.4v.69c0,.22.18.4.4.4h5.04c.22,0,.34.17.26.37l-.5,1.39c-.07.21-.32.37-.53.37h-3.61c-.22,0-.4.18-.4.4v.89c0,.22.18.4.4.4h3.01c.22,0,.34.17.26.37l-.5,1.39c-.07.21-.32.37-.53.37H2.9c-.22,0-.4.18-.4.4v.85c0,.22.18.4.4.4h4.2c.22,0,.34.17.26.37l-.44,1.23c-.07.21-.32.37-.53.37h-2.41c-.22,0-.4.18-.4.4v.52c0,.22.18.4.4.4h1.9c.22,0,.34.17.26.37l-.62,1.72c-.07.21-.32.37-.53.37H0"/>
  <path class="cls-1" d="m9.32,22.49c0-.22-.18-.4-.4-.4h-.71c-.22,0-.4.18-.4.4v.69c0,.22.18.4.4.4h.71c.22,0,.4-.18.4-.4v-.69Z"/>
  <path class="cls-1" d="m2.48,47.25c0-.22-.18-.4-.4-.4h-.47c-.22,0-.4.18-.4.4v.47c0,.22.18.4.4.4h.47c.22,0,.4-.18.4-.4v-.47Z"/>
  <path class="cls-1" d="m21.94,32.37c0,.22.18.4.4.4h.51c.22,0,.4-.18.4-.4v-.47c0-.22-.18-.4-.4-.4h-.51c-.22,0-.4.18-.4.4v.47Z"/>
</svg>