<svg xmlns="http://www.w3.org/2000/svg" viewBox="0 0 384 384"><defs><style>.cls-1{fill:#fff;}</style></defs><g id="Слой_2" data-name="Слой 2"><path class="cls-1" d="M757,340h384V724H757Zm112.87,52.11c-7.08,2-14.29,3-20.53,6-19,9.12-28.75,24.61-29.49,45.78-.6,17.4,1.68,34.89-1.46,52.21-2.28,12.63-4.4,25.29-7.2,37.8a327.56,327.56,0,0,1-24.6,70.39c-6.47,13.44-3.77,27.26,6.67,37,6.89,6.41,15.2,8.75,24.42,8.41,1.91-.07,3.36-.06,4.2,2.43,7.83,23,25.73,35.88,49.93,35.89q95.63.06,191.25,0c28.72,0,51.25-21.68,51.39-50.32q.45-97.3,0-194.62c-.09-21-10.19-36.45-29.17-45.47-5.85-2.77-12.49-3.88-19-5.82-1.25-9.68-5.06-14.4-12.1-14.51-7.2-.12-10.71,4.1-12.49,15.06H894.27c-.74-10.36-4.67-15.47-11.77-15.67C874.9,376.4,871.52,380.71,869.87,392.11Z" transform="translate(-757 -340)"/><path d="M869.87,392.11c1.65-11.4,5-15.71,12.63-15.5,7.1.2,11,5.31,11.77,15.67h147.42c1.78-11,5.29-15.18,12.49-15.06,7,.11,10.85,4.83,12.1,14.51,6.5,1.94,13.14,3,19,5.82,19,9,29.08,24.51,29.17,45.47q.42,97.31,0,194.62c-.14,28.64-22.67,50.3-51.39,50.32q-95.62.07-191.25,0c-24.2,0-42.1-12.87-49.93-35.89-.84-2.49-2.29-2.5-4.2-2.43-9.22.34-17.53-2-24.42-8.41-10.44-9.7-13.14-23.52-6.67-37a327.56,327.56,0,0,0,24.6-70.39c2.8-12.51,4.92-25.17,7.2-37.8,3.14-17.32.86-34.81,1.46-52.21.74-21.17,10.51-36.66,29.49-45.78C855.58,395.09,862.79,394.11,869.87,392.11ZM927,626.19c35.79,0,71.57-.08,107.36,0,11.23,0,18.77-4.77,23.55-15,16.18-34.61,26.11-71,30.84-108.79.76-6.12.77-6.12-5.43-6.12q-118.78,0-237.56-.09c-3.42,0-4.46,1.17-4.86,4.27a402.76,402.76,0,0,1-13.45,61.6,392.67,392.67,0,0,1-19.61,51.63c-2.36,5.17-1,9,4.16,11.28a15.33,15.33,0,0,0,6.13,1.1Q872.57,626.25,927,626.19Zm-83.17-154.7H1090.6c0-1.36,0-2.46,0-3.56-.09-9.23.27-18.48-.39-27.67-.81-11.26-9.14-20.29-20.06-22.91a32.82,32.82,0,0,0-3.86-.48c-.82,9.93-4.4,15-11.12,15.1a15.34,15.34,0,0,1-8-2.29c-4.52-2.83-5.51-7.66-5.1-12.86H894c-2.4,10.3-5.62,14.33-12.17,14.12-8.8-.28-12-6.27-12.68-14-12.45,0-23.92,8.7-25.12,20.58C842.94,448.67,843.83,460.05,843.83,471.49ZM1090,595.58l-.49,0c-3.54,8.19-6.9,16.47-10.66,24.56-9,19.36-24.31,29-45.68,28.94q-90.9,0-181.79,0h-4.29c0,.68-.09,1,0,1.14a17.73,17.73,0,0,0,1.2,1.89c5.54,7.29,12.73,11.3,22.06,11.3q96.49,0,193,0c.74,0,1.49,0,2.24,0,13.07-.66,24-11.31,24.31-24.38C1090.24,624.5,1090,610,1090,595.58Z" transform="translate(-757 -340)"/><path class="cls-1" d="M927,626.19q-54.43,0-108.87-.05A15.33,15.33,0,0,1,812,625c-5.17-2.31-6.52-6.11-4.16-11.28a392.67,392.67,0,0,0,19.61-51.63,402.76,402.76,0,0,0,13.45-61.6c.4-3.1,1.44-4.27,4.86-4.27q118.79.18,237.56.09c6.2,0,6.19,0,5.43,6.12-4.73,37.84-14.66,74.18-30.84,108.79-4.78,10.21-12.32,15-23.55,15C998.57,626.11,962.79,626.19,927,626.19Zm25.77-62.13c-2.15-2.22-3.95-4.12-5.8-6-6.7-6.71-13.32-13.5-20.16-20.06-4.91-4.7-11.47-4.35-16.4.52-4.74,4.67-5.25,11.08-.74,15.68q17.42,17.78,35.19,35.19c4.86,4.75,11.6,4.39,16.42-.41q24.51-24.43,48.94-49c6.75-6.8,3.93-17-5.3-19.75-5.08-1.51-9,.5-12.43,4C979.37,537.43,966.24,550.57,952.77,564.06Z" transform="translate(-757 -340)"/><path class="cls-1" d="M843.83,471.49c0-11.44-.89-22.82.24-34,1.2-11.88,12.67-20.54,25.12-20.58.68,7.77,3.88,13.76,12.68,14,6.55.21,9.77-3.82,12.17-14.12h148c-.41,5.2.58,10,5.1,12.86a15.34,15.34,0,0,0,8,2.29c6.72-.11,10.3-5.17,11.12-15.1a32.82,32.82,0,0,1,3.86.48c10.92,2.62,19.25,11.65,20.06,22.91.66,9.19.3,18.44.39,27.67,0,1.1,0,2.2,0,3.56Z" transform="translate(-757 -340)"/><path class="cls-1" d="M1090,595.58c0,14.46.26,28.92-.08,43.36-.3,13.07-11.24,23.72-24.31,24.38-.75,0-1.5,0-2.24,0q-96.51,0-193,0c-9.33,0-16.52-4-22.06-11.3a17.73,17.73,0,0,1-1.2-1.89c-.1-.18,0-.46,0-1.14h4.29q90.9,0,181.79,0c21.37,0,36.67-9.58,45.68-28.94,3.76-8.09,7.12-16.37,10.66-24.56Z" transform="translate(-757 -340)"/><path d="M952.77,564.06c13.47-13.49,26.6-26.63,39.72-39.79,3.47-3.48,7.35-5.49,12.43-4,9.23,2.75,12.05,13,5.3,19.75q-24.39,24.57-48.94,49c-4.82,4.8-11.56,5.16-16.42.41q-17.8-17.38-35.19-35.19c-4.51-4.6-4-11,.74-15.68,4.93-4.87,11.49-5.22,16.4-.52,6.84,6.56,13.46,13.35,20.16,20.06C948.82,559.94,950.62,561.84,952.77,564.06Z" transform="translate(-757 -340)"/></g></svg>