<svg id="Слой_1" data-name="Слой 1" xmlns="http://www.w3.org/2000/svg" viewBox="0 0 384 384"><defs><style>.cls-1{fill:#fff;}</style></defs><path class="cls-1" d="M1152,732H768V348h384ZM769.59,680c1,.39,1.92.77,2.85,1.11Q833.81,704,895.16,727a8.87,8.87,0,0,0,6.75,0q58-21.78,116.09-43.29a10.44,10.44,0,0,1,6.69-.16c33,12.19,65.94,24.57,98.89,36.9,8.85,3.31,17.72,6.59,26.92,10V727q0-132.4.07-264.8c0-2.75-.94-3.86-3.4-4.77-40.82-15.18-81.59-30.47-122.43-45.59a10.45,10.45,0,0,0-6.72,0Q961.67,432.73,905.47,454c-5.05,1.92-9.32,2.11-14.2-.13-5.59-2.56-11.5-4.41-17.5-6.66,1.07-2,2-3.5,2.69-5.08,4.24-9.3,8.81-18.48,12.59-28,8.51-21.32-1.15-41.72-13.74-52.69a49.07,49.07,0,0,0-58.2-4.52c-18.3,11.61-27.71,34.74-20.67,54.68.84,2.37,1.52,4.79,2.41,7.63l-29.26-10.85Z" transform="translate(-768 -348)"/><path d="M769.59,680V408.38l29.26,10.85c-.89-2.84-1.57-5.26-2.41-7.63-7-19.94,2.37-43.07,20.67-54.68a49.07,49.07,0,0,1,58.2,4.52c12.59,11,22.25,31.37,13.74,52.69-3.78,9.49-8.35,18.67-12.59,28-.72,1.58-1.62,3.08-2.69,5.08,6,2.25,11.91,4.1,17.5,6.66,4.88,2.24,9.15,2.05,14.2.13q56.16-21.36,112.55-42.08a10.45,10.45,0,0,1,6.72,0c40.84,15.12,81.61,30.41,122.43,45.59,2.46.91,3.4,2,3.4,4.77q-.13,132.4-.07,264.8v3.44c-9.2-3.43-18.07-6.71-26.92-10-32.95-12.33-65.88-24.71-98.89-36.9a10.44,10.44,0,0,0-6.69.16Q959.89,705.18,901.91,727a8.87,8.87,0,0,1-6.75,0q-61.32-23-122.72-45.86C771.51,680.75,770.59,680.37,769.59,680Zm258.14-253.89c-.12,1.07-.2,1.44-.2,1.8,0,27.88,0,55.76.1,83.64,0,1.58,1.18,3.42,2.33,4.66,12.71,13.83,18.13,29.66,11.87,47.91-3.51,10.22-8.58,19.9-12.84,29.87a15.11,15.11,0,0,0-1.4,5.66c-.1,22.75,0,45.51-.13,68.26,0,2.64.72,3.89,3.3,4.85q51.95,19.25,103.82,38.71c1.08.4,2.2.72,3.52,1.15.07-1.34.14-2.09.14-2.83q0-119.64.08-239.29c0-2.74-1.19-3.61-3.38-4.43q-40.53-15.06-81-30.24C1045.31,432.58,1036.67,429.4,1027.73,426.09ZM892.37,712.76V471.41a10.32,10.32,0,0,0-.06-2.61c-.2-.73-.66-1.73-1.26-2-7.77-3-15.58-5.86-23.25-8.71-8.22,12.64-16.23,24.93-24.4,37.47a18.89,18.89,0,0,1-1.31-1.57c-11.51-18.73-23-37.48-34.55-56.15a10,10,0,0,0-4.23-3.7c-5-2.17-10.23-4-15.38-5.9-1.91-.7-3.87-1.26-6.24-2v4.36q0,118.53-.06,237.06c0,2.79.77,4.12,3.48,5.12,21.32,7.83,42.57,15.84,63.84,23.79C863.19,701.9,877.44,707.2,892.37,712.76Zm122.81-286.49c-1.23.34-1.95.49-2.64.74q-52.06,19.44-104.14,38.85c-2.84,1.05-3.93,2.31-3.93,5.51q.16,118.5.09,237v4.25c1.36-.41,2.19-.6,3-.9q52.41-19.56,104.85-39.1c2.22-.83,3-2,3-4.36-.11-15.49,0-31-.06-46.5,0-.8-.1-1.61-.22-3.33l-19.9,30.07a17.68,17.68,0,0,0-.91-1.85c-15-22.74-29.59-45.74-40.68-70.69-3.16-7.12-6.22-14.75-7-22.37-2.91-29.45,24.6-55.32,53.93-51.37,4.88.66,9.66,2.07,14.62,3.16ZM843.51,473.42c13.06-21.08,26.74-41.68,34.7-65.33a31.75,31.75,0,0,0,1.74-9.53,36.78,36.78,0,0,0-69.47-16.86c-5.61,10.82-4.86,21.57-.3,32.5,8.6,20.62,20.16,39.57,32.2,58.28C842.56,472.77,842.93,472.94,843.51,473.42ZM995.17,626.16c.94-1.34,1.63-2.25,2.24-3.22,2.94-4.65,5.94-9.25,8.75-14,8.68-14.6,17.29-29.23,23.24-45.24,2.35-6.31,3.57-12.72,2.22-19.45a37,37,0,0,0-46.12-28.8c-19,5.23-32.71,26.72-24.37,48C969.81,585.58,982.31,605.54,995.17,626.16Z" transform="translate(-768 -348)"/><path class="cls-1" d="M1027.73,426.09c8.94,3.31,17.58,6.49,26.21,9.72q40.5,15.12,81,30.24c2.19.82,3.38,1.69,3.38,4.43q-.13,119.64-.08,239.29c0,.74-.07,1.49-.14,2.83-1.32-.43-2.44-.75-3.52-1.15q-51.9-19.38-103.82-38.71c-2.58-1-3.31-2.21-3.3-4.85.11-22.75,0-45.51.13-68.26A15.11,15.11,0,0,1,1029,594c4.26-10,9.33-19.65,12.84-29.87,6.26-18.25.84-34.08-11.87-47.91-1.15-1.24-2.33-3.08-2.33-4.66-.14-27.88-.1-55.76-.1-83.64C1027.53,427.53,1027.61,427.16,1027.73,426.09Z" transform="translate(-768 -348)"/><path class="cls-1" d="M892.37,712.76c-14.93-5.56-29.18-10.86-43.42-16.18-21.27-8-42.52-16-63.84-23.79-2.71-1-3.48-2.33-3.48-5.12q.12-118.53.06-237.06v-4.36c2.37.77,4.33,1.33,6.24,2,5.15,1.91,10.34,3.73,15.38,5.9a10,10,0,0,1,4.23,3.7c11.59,18.67,23,37.42,34.55,56.15a18.89,18.89,0,0,0,1.31,1.57c8.17-12.54,16.18-24.83,24.4-37.47,7.67,2.85,15.48,5.73,23.25,8.71.6.23,1.06,1.23,1.26,2a10.32,10.32,0,0,1,.06,2.61V712.76Z" transform="translate(-768 -348)"/><path class="cls-1" d="M1015.18,426.27v79.12c-5-1.09-9.74-2.5-14.62-3.16-29.33-4-56.84,21.92-53.93,51.37.75,7.62,3.81,15.25,7,22.37,11.09,24.95,25.68,47.95,40.68,70.69a17.68,17.68,0,0,1,.91,1.85l19.9-30.07c.12,1.72.22,2.53.22,3.33,0,15.5,0,31,.06,46.5,0,2.4-.75,3.53-3,4.36q-52.46,19.49-104.85,39.1c-.8.3-1.63.49-3,.9v-4.25q0-118.5-.09-237c0-3.2,1.09-4.46,3.93-5.51q52.11-19.32,104.14-38.85C1013.23,426.76,1014,426.61,1015.18,426.27Z" transform="translate(-768 -348)"/><path class="cls-1" d="M843.51,473.42c-.58-.48-1-.65-1.13-.94-12-18.71-23.6-37.66-32.2-58.28-4.56-10.93-5.31-21.68.3-32.5A36.78,36.78,0,0,1,880,398.56a31.75,31.75,0,0,1-1.74,9.53C870.25,431.74,856.57,452.34,843.51,473.42Zm24.22-74.63a24.55,24.55,0,1,0-24.57,24.44A24.5,24.5,0,0,0,867.73,398.79Z" transform="translate(-768 -348)"/><path class="cls-1" d="M995.17,626.16c-12.86-20.62-25.36-40.58-34-62.71-8.34-21.25,5.33-42.74,24.37-48a37,37,0,0,1,46.12,28.8c1.35,6.73.13,13.14-2.22,19.45-6,16-14.56,30.64-23.24,45.24-2.81,4.72-5.81,9.32-8.75,14C996.8,623.91,996.11,624.82,995.17,626.16Zm.12-99.7A24.61,24.61,0,1,0,1019.92,551,24.75,24.75,0,0,0,995.29,526.46Z" transform="translate(-768 -348)"/><path d="M867.73,398.79a24.55,24.55,0,1,1-24.34-24.66A24.48,24.48,0,0,1,867.73,398.79Zm-24.42,12.15a12.41,12.41,0,0,0,12.2-12.2A12.55,12.55,0,0,0,843,386.36a12.29,12.29,0,0,0,.28,24.58Z" transform="translate(-768 -348)"/><path d="M995.29,526.46A24.61,24.61,0,1,1,970.66,551,24.71,24.71,0,0,1,995.29,526.46Zm.14,36.82a12.16,12.16,0,0,0,12.11-12.17,12.31,12.31,0,0,0-12.38-12.36,12.27,12.27,0,0,0,.27,24.53Z" transform="translate(-768 -348)"/><path class="cls-1" d="M843.31,410.94a12.29,12.29,0,0,1-.28-24.58,12.55,12.55,0,0,1,12.48,12.38A12.41,12.41,0,0,1,843.31,410.94Z" transform="translate(-768 -348)"/><path class="cls-1" d="M995.43,563.28a12.27,12.27,0,0,1-.27-24.53,12.31,12.31,0,0,1,12.38,12.36A12.16,12.16,0,0,1,995.43,563.28Z" transform="translate(-768 -348)"/></svg>