<svg id="Слой_1" data-name="Слой 1" xmlns="http://www.w3.org/2000/svg" viewBox="0 0 384 384"><defs><style>.cls-1{fill:#fff;}</style></defs><path class="cls-1" d="M768,732V348h384V732ZM986.14,603c21.27-17.62,19.47-45.24,5.1-61.12-15-16.65-40.7-18.65-57.84-4.34-8.86,7.4-14.08,16.88-15.13,28.33-1.43,15.45,4.63,27.94,16.67,37.89-.93.54-1.44.85-2,1.13-17.75,9.41-26.78,24.19-26.91,44.24-.14,21,0,42,0,63,0,5.72,2,7.84,7.53,7.84q46.52,0,93,0c5.36,0,7.47-2.13,7.48-7.52,0-21.62.07-43.25,0-64.87,0-11.26-3.44-21.61-11-29.92C998,612.25,991.88,607.93,986.14,603Zm130-12.15c16.87-15.82,14.25-38.1,2.89-50.75a35.8,35.8,0,0,0-49-4.47,34.76,34.76,0,0,0-13.49,23.41c-1.76,12.94,2.94,23.59,12.37,32.55-.94.5-1.48.78-2,1.08-14.88,8.39-22.64,21.06-22.73,38.19-.1,19.24,0,38.48,0,57.72,0,5.17,2.14,7.38,7.22,7.38q40.86,0,81.72,0c4.87,0,7.06-2.24,7.06-7.17,0-19.86.09-39.73,0-59.59-.07-9.7-3.11-18.58-9.65-25.74C1126.19,598.85,1121,595.11,1116.11,590.87Zm-311.42.71c-.73.44-1.15.7-1.57.93-15.26,8.39-23.06,21.26-23.12,38.69-.06,19,0,38,0,57,0,5.69,2,7.8,7.55,7.81q40.5,0,81,0c5.37,0,7.48-2.12,7.49-7.5,0-19.61.23-39.23-.07-58.84-.23-15.85-7.61-27.86-21.14-36.09-1.11-.68-2.25-1.32-3.45-2,18.1-17,14.85-40.32,2.06-53a36,36,0,0,0-50.36-.46C790,550.47,786.2,574.25,804.69,591.58ZM932.51,446.2c-.25,1.61-.4,2.59-.56,3.58-1.17,7.27-2.28,14.55-3.56,21.8-.52,3-.22,5.51,2.38,7.32s5.18.94,7.71-.48c6.09-3.43,12.32-6.63,18.3-10.24,2.52-1.52,4.38-1.27,6.77.13,6.13,3.6,12.44,6.91,18.64,10.39,2.49,1.39,5.3,2.16,7.22-.09a9.61,9.61,0,0,0,2.17-6.56c-.84-7.56-2.22-15.06-3.55-22.55-.47-2.66-.13-4.64,2-6.66,5.41-5.18,10.69-10.52,15.67-16.12,1.36-1.53,2.45-4.56,1.85-6.26-.67-1.86-3.26-3.83-5.32-4.27-7.32-1.56-14.75-2.64-22.18-3.58-2.38-.3-3.41-1.35-4.31-3.35-3.14-6.93-6.48-13.77-9.67-20.68-1.24-2.7-3-4.67-6.16-4.6-3,.07-4.65,2-5.83,4.55-3.24,7-6.44,14.07-9.94,21a6.38,6.38,0,0,1-4,3c-6.74,1.28-13.55,2.17-20.34,3.2-3.15.48-6.31,1-7.43,4.66-1.06,3.44,1.08,5.63,3.24,7.81q7.5,7.61,14.94,15.27A22.13,22.13,0,0,1,932.51,446.2ZM858.13,469c-.44-4.13-2.38-6.12-5.73-6.7-3.56-.63-7.18-1-10.69-1.8a5.4,5.4,0,0,1-3.16-2.43c-1.8-3.27-2.92-6.95-5-10-1.22-1.81-3.71-3.7-5.69-3.78-1.78-.07-4,2-5.4,3.66a13.66,13.66,0,0,0-2.6,5.34c-1.59,5.6-5,8.52-11,8.24a10,10,0,0,0-4.76.74c-2.08,1.07-4.86,2.36-5.5,4.2s.32,5.39,1.83,6.5c8.38,6.18,10.1,13.85,7,23.44-.54,1.71.7,5.05,2.18,6.06,1.64,1.11,4.74,1.06,6.81.36,3.13-1.06,5.84-3.35,8.92-4.66a7.14,7.14,0,0,1,5-.06c3.09,1.29,5.79,3.57,8.93,4.65,2.08.72,5.26.91,6.8-.22s2.31-4.2,2.29-6.42c0-3.45-1.27-6.87-1.47-10.34a8.52,8.52,0,0,1,1.62-5.23c2.14-2.74,4.88-5,7.18-7.62A21.31,21.31,0,0,0,858.13,469Zm234.08-26.21c-2.29,1.87-4.15,2.91-5.31,4.47a19.32,19.32,0,0,0-2.94,6c-1.65,5.54-5,8.54-11,8.23a9.92,9.92,0,0,0-4.77.74c-2.08,1.07-4.85,2.37-5.49,4.21s.32,5.38,1.83,6.49c8.39,6.18,10.09,13.85,7,23.45-.54,1.71.7,5,2.18,6.05,1.65,1.11,5.32,1.44,6.73.34,7.84-6.1,15.14-6.31,23-.07,1.42,1.13,5.18.93,6.73-.2s2.78-4.53,2.24-6.37c-2.78-9.42-1.35-17.05,7-23.1,1.53-1.1,2.55-4.66,2-6.48s-3.3-3.55-5.43-4.24c-3.28-1.07-6.89-1.05-10.29-1.84a5.39,5.39,0,0,1-3.15-2.43c-1.81-3.27-3-6.88-5-10.05C1096.51,446.1,1094.38,444.78,1092.21,442.77Zm-85.63-51.88,8.67-8.27-9.85-8.3c-2.54,3.56-4.75,6.64-6.95,9.73Zm-92.21,94.95L907,477.62l-9.62,7.21,8.76,9.61Zm-22-87,10.38,6c2.15-3.09,4.17-6,6.28-9.06l-9.27-7.54ZM957,372h11c.41-3.79.81-7.45,1.27-11.59H956.32C956.53,364.1,956.74,367.8,957,372Zm-4.43,143.79c.4-4.19.76-8,1.13-11.94l-10.75-1.89c-1,3.86-2,7.51-3.07,11.56Zm85.72-77.56h-12l-.88,10.73,11.78,1.89C1037.53,446.39,1037.89,442.46,1038.27,438.19ZM908.9,378.89c2.77,3.21,5.28,6.11,7.87,9.09,3.09-2.31,5.93-4.43,8.84-6.62l-6.36-10.16Zm69.83-4.44,10.27,3.9c1.77-3.67,3.39-7,5.21-10.77L982.07,363Zm23.55,129.24c-2.3-3.59-4.37-6.8-6.47-10.07l-9.68,5.24,4.76,11ZM1025.76,430l11.91-1.33c-.9-4.38-1.72-8.41-2.6-12.74l-11.45,3.42C1024.35,423,1025,426.23,1025.76,430Zm-139-19.41-3.44,12.55,11.78,2.18L898,414.83Zm40.82,98.45,5-10.88-9.54-5.4-6.74,9.9Zm37.28-5c.27,4,.52,7.64.8,11.89l12.83-2.06c-1.06-4.27-2-7.85-2.87-11.57Zm-79.25-42.24c1.69,4.07,3.27,7.88,5,12l10.61-5.49c-1.46-3.51-2.82-6.77-4.21-10.13ZM1014,399.6l5.68,9.42,10.73-5.31c-2.36-3.92-4.46-7.4-6.67-11Zm-1.9,79.25L1004.6,487l8.09,8.8,8.76-9.53ZM931,365.38l4.5,11.15L946,373.16c-.89-4-1.71-7.56-2.62-11.59Zm87.16,104.26,10.55,5.73c1.82-4.16,3.44-7.86,5.2-11.86l-11.29-3.89ZM882.68,449.07l11.89-1.76c-.28-3.9-.53-7.31-.78-10.91H881.92C882.17,440.55,882.41,444.57,882.68,449.07Z" transform="translate(-768 -348)"/><path d="M986.14,603c5.74,4.91,11.9,9.23,16.85,14.66,7.6,8.31,11,18.66,11,29.92.1,21.62.05,43.25,0,64.87,0,5.39-2.12,7.52-7.48,7.52q-46.51,0-93,0c-5.51,0-7.52-2.12-7.53-7.84,0-21-.11-42,0-63,.13-20,9.16-34.83,26.91-44.24.53-.28,1-.59,2-1.13-12-9.95-18.1-22.44-16.67-37.89,1.05-11.45,6.27-20.93,15.13-28.33,17.14-14.31,42.79-12.31,57.84,4.34C1005.61,557.78,1007.41,585.4,986.14,603Zm-36,9.29c-2.1.33-3.44.44-4.73.76a35.85,35.85,0,0,0-27.34,34.68c-.13,19.11,0,38.23,0,57.35a26.69,26.69,0,0,0,.26,2.69h83.46a6.73,6.73,0,0,0,.26-1.24c0-20.11.26-40.23-.12-60.34-.21-11.24-5.5-20.35-14.5-27.12a31.83,31.83,0,0,0-17.27-6.65c.75,1.6,1.24,2.71,1.78,3.79,3.55,7.16,7,14.34,10.72,21.43a8.77,8.77,0,0,1,.34,8.18c-5.7,13-11.28,26.11-16.84,39.2-1.16,2.73-2.76,4.83-5.94,4.9-3.38.07-5.05-2.09-6.26-5-4.08-9.65-7.55-19.64-12.58-28.78-5.52-10-5.7-18.9.9-28.36C945.41,623.31,947.33,617.94,950.14,612.31Zm12-48.33c-11.39,0-21.42,2.74-29.11,7.23-2,1.17-2.71,2.4-2.29,4.75,2.4,13.42,15.08,23.94,29.11,24,14.24.07,27-10.44,29.46-24,.42-2.34-.26-3.58-2.32-4.74A53.93,53.93,0,0,0,962.16,564Zm-2.11,55.43c-3.87,7.74-7.37,14.6-10.68,21.55a4.89,4.89,0,0,0,.28,3.44c2.2,5.42,4.55,10.79,6.87,16.16,1.05,2.43,2.17,4.82,3.6,8,3.85-9,7.35-17.08,10.75-25.21a3.28,3.28,0,0,0-.12-2.42C967.37,634,963.91,627.14,960.05,619.41Zm27-61.7A29.44,29.44,0,0,0,959.26,540c-11.23.22-22.28,7.52-26.14,17.7a66.33,66.33,0,0,1,54,0Z" transform="translate(-768 -348)"/><path d="M1116.11,590.87c4.88,4.24,10.08,8,14.3,12.61,6.54,7.16,9.58,16,9.65,25.74.12,19.86.06,39.73,0,59.59,0,4.93-2.19,7.16-7.06,7.17q-40.86,0-81.72,0c-5.08,0-7.22-2.21-7.22-7.38,0-19.24-.09-38.48,0-57.72.09-17.13,7.85-29.8,22.73-38.19.53-.3,1.07-.58,2-1.08-9.43-9-14.13-19.61-12.37-32.55A34.76,34.76,0,0,1,1070,535.65a35.8,35.8,0,0,1,49,4.47C1130.36,552.77,1133,575.05,1116.11,590.87Zm-60,92.82h72c0-18.66.24-37-.09-55.38-.23-13.09-10.44-24.73-23.19-27.42a26.9,26.9,0,0,0-3.53-.24c2.77,6.93,5.49,13.22,7.76,19.68a11.53,11.53,0,0,1,.25,6.8c-3.5,11.18-7.38,22.25-11,33.39-1,3.16-2.7,5.45-6.25,5.4s-5.11-2.46-6.11-5.59c-2.43-7.6-4.43-15.42-7.7-22.66-4.29-9.48-4.34-18.28.83-27.32,1.66-2.9,2.52-6.27,3.84-9.66-14.31.58-26.48,13.79-26.72,28.57-.18,10.74-.05,21.49-.05,32.23ZM1092,558a39.73,39.73,0,0,0-21.53,6.32,4.7,4.7,0,0,0-1.78,3.75c1.57,11.27,11.7,19.87,23.18,19.94,11.69.08,22-8.5,23.58-19.93a4.7,4.7,0,0,0-1.75-3.77A40.35,40.35,0,0,0,1092,558Zm-.55,52.28c-1.7,5.79-4.28,10.62-4.19,15.41s2.88,9.4,4.72,14.78C1098.23,625.66,1098.19,621.36,1091.47,610.23Zm18.08-62c-7.08-11-27.76-11-35,.07,5.56-.73,11.44-2.11,17.32-2.12S1103.91,547.48,1109.55,548.19Z" transform="translate(-768 -348)"/><path d="M804.69,591.58c-18.49-17.33-14.67-41.11-1.64-53.53a36,36,0,0,1,50.36.46c12.79,12.69,16,36-2.06,53,1.2.71,2.34,1.35,3.45,2,13.53,8.23,20.91,20.24,21.14,36.09.3,19.61.09,39.23.07,58.84,0,5.38-2.12,7.5-7.49,7.5q-40.49,0-81,0c-5.52,0-7.54-2.12-7.55-7.81,0-19,0-38,0-57,.06-17.43,7.86-30.3,23.12-38.69C803.54,592.28,804,592,804.69,591.58Zm32.51,9.17c2.69,6.71,5.42,13,7.67,19.46a12.28,12.28,0,0,1,.23,7.15c-3.45,11.07-7.31,22-10.91,33-1,3.13-2.61,5.51-6.16,5.52s-5.17-2.32-6.19-5.46c-3.33-10.2-6.65-20.41-10.27-30.5a14.82,14.82,0,0,1,.37-12.19c2.56-5.45,4.51-11.18,6.8-17-13.5,0-26.36,13.22-26.63,27.58-.33,18.23-.06,36.47,0,54.71,0,.21.23.41.36.65h71.48c0-19,0-37.7,0-56.42a20.24,20.24,0,0,0-.67-4.06C860.55,611.17,849.06,601,837.2,600.75Zm-9-12.79A23.66,23.66,0,0,0,851.39,568a4.43,4.43,0,0,0-1.44-3.58c-12.18-8.55-31.67-8.54-43.85,0a4.41,4.41,0,0,0-1.5,3.55C806.22,579.43,816.5,588,828.17,588Zm-.94,22.73c-1.56,5.35-4.13,10.19-4,15s2.88,9.37,4.59,14.36C833,630.06,835.35,620.67,827.23,610.69Zm19.19-61.5c-9.76-12.12-28.41-12-36.62,0C822,544.92,833.88,545,846.42,549.19Z" transform="translate(-768 -348)"/><path d="M932.51,446.2a22.13,22.13,0,0,0-2-2.81q-7.43-7.68-14.94-15.27c-2.16-2.18-4.3-4.37-3.24-7.81,1.12-3.64,4.28-4.18,7.43-4.66,6.79-1,13.6-1.92,20.34-3.2a6.38,6.38,0,0,0,4-3c3.5-6.89,6.7-13.94,9.94-21,1.18-2.56,2.81-4.48,5.83-4.55,3.19-.07,4.92,1.9,6.16,4.6,3.19,6.91,6.53,13.75,9.67,20.68.9,2,1.93,3.05,4.31,3.35,7.43.94,14.86,2,22.18,3.58,2.06.44,4.65,2.41,5.32,4.27.6,1.7-.49,4.73-1.85,6.26-5,5.6-10.26,10.94-15.67,16.12-2.11,2-2.45,4-2,6.66,1.33,7.49,2.71,15,3.55,22.55a9.61,9.61,0,0,1-2.17,6.56c-1.92,2.25-4.73,1.48-7.22.09-6.2-3.48-12.51-6.79-18.64-10.39-2.39-1.4-4.25-1.65-6.77-.13-6,3.61-12.21,6.81-18.3,10.24-2.53,1.42-5.05,2.33-7.71.48s-2.9-4.36-2.38-7.32c1.28-7.25,2.39-14.53,3.56-21.8C932.11,448.79,932.26,447.81,932.51,446.2Zm-1.19-20.09-.94,1.49c3.91,3.5,7.8,7,11.72,10.49,2.59,2.3,3.29,5,2.59,8.43-1.06,5.14-1.71,10.36-2.63,16.14,5-2.75,9.44-5,13.73-7.57a7.57,7.57,0,0,1,8.42-.07c4.39,2.56,8.91,4.9,13.8,7.57-.6-3.94-.67-7.53-1.74-10.78-2.44-7.39-.49-13,5.52-17.72,2.73-2.15,4.94-5,7.75-7.85-5.71-.91-10.49-1.9-15.32-2.38a8.39,8.39,0,0,1-7.57-5.66c-1.92-4.51-4.17-8.88-6.62-14-2.59,5.51-4.84,10.2-7,14.93a7.49,7.49,0,0,1-6.27,4.65C941.59,424.44,936.46,425.31,931.32,426.11Z" transform="translate(-768 -348)"/><path d="M858.13,469a21.31,21.31,0,0,1-2.34,3.92c-2.3,2.63-5,4.88-7.18,7.62a8.52,8.52,0,0,0-1.62,5.23c.2,3.47,1.44,6.89,1.47,10.34,0,2.22-.74,5.29-2.29,6.42s-4.72.94-6.8.22c-3.14-1.08-5.84-3.36-8.93-4.65a7.14,7.14,0,0,0-5,.06c-3.08,1.31-5.79,3.6-8.92,4.66-2.07.7-5.17.75-6.81-.36-1.48-1-2.72-4.35-2.18-6.06,3.05-9.59,1.33-17.26-7-23.44-1.51-1.11-2.46-4.69-1.83-6.5s3.42-3.13,5.5-4.2a10,10,0,0,1,4.76-.74c6,.28,9.38-2.64,11-8.24a13.66,13.66,0,0,1,2.6-5.34c1.45-1.63,3.62-3.73,5.4-3.66,2,.08,4.47,2,5.69,3.78,2.07,3.06,3.19,6.74,5,10a5.4,5.4,0,0,0,3.16,2.43c3.51.81,7.13,1.17,10.69,1.8C855.75,462.86,857.69,464.85,858.13,469Zm-23.57,17.77c-.35-7.6-.35-7.6,4.49-14.36-5.26-.17-9.33-2-11-7.83-1.77,5.73-5.76,7.71-12,7.83,5.42,3.81,7.07,8.23,5.33,14C825.9,483.1,830.06,483,834.56,486.75Z" transform="translate(-768 -348)"/><path d="M1092.21,442.77c2.17,2,4.3,3.33,5.47,5.23,2,3.17,3.15,6.78,5,10.05a5.39,5.39,0,0,0,3.15,2.43c3.4.79,7,.77,10.29,1.84,2.13.69,4.83,2.39,5.43,4.24s-.43,5.38-2,6.48c-8.39,6-9.82,13.68-7,23.1.54,1.84-.7,5.24-2.24,6.37s-5.31,1.33-6.73.2c-7.88-6.24-15.18-6-23,.07-1.41,1.1-5.08.77-6.73-.34-1.48-1-2.72-4.34-2.18-6.05,3-9.6,1.34-17.27-7-23.45-1.51-1.11-2.46-4.69-1.83-6.49s3.41-3.14,5.49-4.21a9.92,9.92,0,0,1,4.77-.74c6,.31,9.32-2.69,11-8.23a19.32,19.32,0,0,1,2.94-6C1088.06,445.68,1089.92,444.64,1092.21,442.77Zm-.15,21.79c-1.67,5.82-5.77,7.64-11.32,8.18,5.24,3.34,6.3,8,4.71,13.69,4.64-3.7,8.9-3,13.07,0,0-3-.57-5.68.17-7.88s2.81-3.94,4.56-6.24C1097.79,472.3,1093.85,470.24,1092.06,464.56Z" transform="translate(-768 -348)"/><path d="M1006.58,390.89l-8.13-6.84c2.2-3.09,4.41-6.17,6.95-9.73l9.85,8.3Z" transform="translate(-768 -348)"/><path d="M914.37,485.84l-8.2,8.6-8.76-9.61,9.62-7.21Z" transform="translate(-768 -348)"/><path d="M892.34,398.79l7.39-10.56,9.27,7.54c-2.11,3.05-4.13,6-6.28,9.06Z" transform="translate(-768 -348)"/><path d="M957,372c-.24-4.16-.45-7.86-.66-11.59h12.91c-.46,4.14-.86,7.8-1.27,11.59Z" transform="translate(-768 -348)"/><path d="M952.55,515.75l-12.69-2.27c1.07-4.05,2-7.7,3.07-11.56l10.75,1.89C953.31,507.75,953,511.56,952.55,515.75Z" transform="translate(-768 -348)"/><path d="M1038.27,438.19c-.38,4.27-.74,8.2-1.13,12.62l-11.78-1.89.88-10.73Z" transform="translate(-768 -348)"/><path d="M908.9,378.89l10.35-7.69,6.36,10.16c-2.91,2.19-5.75,4.31-8.84,6.62C914.18,385,911.67,382.1,908.9,378.89Z" transform="translate(-768 -348)"/><path d="M978.73,374.45,982.07,363l12.14,4.58c-1.82,3.77-3.44,7.1-5.21,10.77Z" transform="translate(-768 -348)"/><path d="M1002.28,503.69l-11.39,6.15-4.76-11,9.68-5.24C997.91,496.89,1000,500.1,1002.28,503.69Z" transform="translate(-768 -348)"/><path d="M1025.76,430c-.76-3.79-1.41-7-2.14-10.65l11.45-3.42c.88,4.33,1.7,8.36,2.6,12.74Z" transform="translate(-768 -348)"/><path d="M886.73,410.61,898,414.83l-2.89,10.51-11.78-2.18Z" transform="translate(-768 -348)"/><path d="M927.55,509.06l-11.3-6.38,6.74-9.9,9.54,5.4Z" transform="translate(-768 -348)"/><path d="M964.83,504l10.76-1.74c.92,3.72,1.81,7.3,2.87,11.57l-12.83,2.06C965.35,511.66,965.1,508,964.83,504Z" transform="translate(-768 -348)"/><path d="M885.58,461.78,897,458.14c1.39,3.36,2.75,6.62,4.21,10.13l-10.61,5.49C888.85,469.66,887.27,465.85,885.58,461.78Z" transform="translate(-768 -348)"/><path d="M1014,399.6l9.74-6.94c2.21,3.65,4.31,7.13,6.67,11L1019.65,409Z" transform="translate(-768 -348)"/><path d="M1012.07,478.85l9.38,7.4-8.76,9.53-8.09-8.8Z" transform="translate(-768 -348)"/><path d="M931,365.38l12.35-3.81c.91,4,1.73,7.63,2.62,11.59l-10.47,3.37Z" transform="translate(-768 -348)"/><path d="M1018.16,469.64l4.46-10,11.29,3.89c-1.76,4-3.38,7.7-5.2,11.86Z" transform="translate(-768 -348)"/><path d="M882.68,449.07c-.27-4.5-.51-8.52-.76-12.67h11.87c.25,3.6.5,7,.78,10.91Z" transform="translate(-768 -348)"/><path class="cls-1" d="M950.14,612.31c-2.81,5.63-4.73,11-7.88,15.52-6.6,9.46-6.42,18.32-.9,28.36,5,9.14,8.5,19.13,12.58,28.78,1.21,2.88,2.88,5,6.26,5,3.18-.07,4.78-2.17,5.94-4.9,5.56-13.09,11.14-26.17,16.84-39.2a8.77,8.77,0,0,0-.34-8.18c-3.68-7.09-7.17-14.27-10.72-21.43-.54-1.08-1-2.19-1.78-3.79a31.83,31.83,0,0,1,17.27,6.65c9,6.77,14.29,15.88,14.5,27.12.38,20.11.12,40.23.12,60.34a6.73,6.73,0,0,1-.26,1.24H918.31a26.69,26.69,0,0,1-.26-2.69c0-19.12-.11-38.24,0-57.35a35.85,35.85,0,0,1,27.34-34.68C946.7,612.75,948,612.64,950.14,612.31Z" transform="translate(-768 -348)"/><path class="cls-1" d="M962.16,564A53.93,53.93,0,0,1,987,571.19c2.06,1.16,2.74,2.4,2.32,4.74-2.42,13.6-15.22,24.11-29.46,24-14-.07-26.71-10.59-29.11-24-.42-2.35.29-3.58,2.29-4.75C940.74,566.72,950.77,564,962.16,564Z" transform="translate(-768 -348)"/><path class="cls-1" d="M960.05,619.41c3.86,7.73,7.32,14.6,10.7,21.52a3.28,3.28,0,0,1,.12,2.42c-3.4,8.13-6.9,16.22-10.75,25.21-1.43-3.18-2.55-5.57-3.6-8-2.32-5.37-4.67-10.74-6.87-16.16a4.89,4.89,0,0,1-.28-3.44C952.68,634,956.18,627.15,960.05,619.41Z" transform="translate(-768 -348)"/><path class="cls-1" d="M987.08,557.71a66.33,66.33,0,0,0-54,0C937,547.5,948,540.2,959.26,540A29.44,29.44,0,0,1,987.08,557.71Z" transform="translate(-768 -348)"/><path class="cls-1" d="M1056.08,683.69v-22.2c0-10.74-.13-21.49.05-32.23.24-14.78,12.41-28,26.72-28.57-1.32,3.39-2.18,6.76-3.84,9.66-5.17,9-5.12,17.84-.83,27.32,3.27,7.24,5.27,15.06,7.7,22.66,1,3.13,2.55,5.54,6.11,5.59s5.22-2.24,6.25-5.4c3.64-11.14,7.52-22.21,11-33.39a11.53,11.53,0,0,0-.25-6.8c-2.27-6.46-5-12.75-7.76-19.68a26.9,26.9,0,0,1,3.53.24c12.75,2.69,23,14.33,23.19,27.42.33,18.35.09,36.72.09,55.38Z" transform="translate(-768 -348)"/><path class="cls-1" d="M1092,558a40.35,40.35,0,0,1,21.7,6.31,4.7,4.7,0,0,1,1.75,3.77c-1.61,11.43-11.89,20-23.58,19.93-11.48-.07-21.61-8.67-23.18-19.94a4.7,4.7,0,0,1,1.78-3.75A39.73,39.73,0,0,1,1092,558Z" transform="translate(-768 -348)"/><path class="cls-1" d="M1091.47,610.23c6.72,11.13,6.76,15.43.53,30.19-1.84-5.38-4.63-10-4.72-14.78S1089.77,616,1091.47,610.23Z" transform="translate(-768 -348)"/><path class="cls-1" d="M1109.55,548.19c-5.64-.71-11.65-2.05-17.67-2.05s-11.76,1.39-17.32,2.12C1081.79,537.21,1102.47,537.21,1109.55,548.19Z" transform="translate(-768 -348)"/><path class="cls-1" d="M837.2,600.75c11.86.22,23.35,10.42,26,22.51a20.24,20.24,0,0,1,.67,4.06c0,18.72,0,37.44,0,56.42H792.44c-.13-.24-.36-.44-.36-.65,0-18.24-.3-36.48,0-54.71.27-14.36,13.13-27.57,26.63-27.58-2.29,5.79-4.24,11.52-6.8,17a14.82,14.82,0,0,0-.37,12.19c3.62,10.09,6.94,20.3,10.27,30.5,1,3.14,2.64,5.48,6.19,5.46s5.14-2.39,6.16-5.52c3.6-11,7.46-22,10.91-33a12.28,12.28,0,0,0-.23-7.15C842.62,613.75,839.89,607.46,837.2,600.75Z" transform="translate(-768 -348)"/><path class="cls-1" d="M828.17,588c-11.67.07-21.95-8.53-23.57-20a4.41,4.41,0,0,1,1.5-3.55c12.18-8.54,31.67-8.55,43.85,0a4.43,4.43,0,0,1,1.44,3.58A23.66,23.66,0,0,1,828.17,588Z" transform="translate(-768 -348)"/><path class="cls-1" d="M827.23,610.69c8.12,10,5.8,19.37.56,29.34-1.71-5-4.5-9.65-4.59-14.36S825.67,616,827.23,610.69Z" transform="translate(-768 -348)"/><path class="cls-1" d="M846.42,549.19c-12.54-4.17-24.4-4.27-36.62,0C818,537.2,836.66,537.07,846.42,549.19Z" transform="translate(-768 -348)"/><path class="cls-1" d="M931.32,426.11c5.14-.8,10.27-1.67,15.43-2.36A7.49,7.49,0,0,0,953,419.1c2.17-4.73,4.42-9.42,7-14.93,2.45,5.15,4.7,9.52,6.62,14a8.39,8.39,0,0,0,7.57,5.66c4.83.48,9.61,1.47,15.32,2.38-2.81,2.89-5,5.7-7.75,7.85-6,4.73-8,10.33-5.52,17.72,1.07,3.25,1.14,6.84,1.74,10.78-4.89-2.67-9.41-5-13.8-7.57a7.57,7.57,0,0,0-8.42.07c-4.29,2.53-8.71,4.82-13.73,7.57.92-5.78,1.57-11,2.63-16.14.7-3.42,0-6.13-2.59-8.43-3.92-3.48-7.81-7-11.72-10.49Z" transform="translate(-768 -348)"/><path class="cls-1" d="M834.56,486.75c-4.5-3.71-8.66-3.65-13.18-.35,1.74-5.78.09-10.2-5.33-14,6.22-.12,10.21-2.1,12-7.83,1.69,5.8,5.76,7.66,11,7.83C834.21,479.15,834.21,479.15,834.56,486.75Z" transform="translate(-768 -348)"/><path class="cls-1" d="M1092.06,464.56c1.79,5.68,5.73,7.74,11.19,7.78-1.75,2.3-3.82,4.05-4.56,6.24s-.17,4.84-.17,7.88c-4.17-3-8.43-3.73-13.07,0,1.59-5.73.53-10.35-4.71-13.69C1086.29,472.2,1090.39,470.38,1092.06,464.56Z" transform="translate(-768 -348)"/></svg>