<svg id="Слой_1" data-name="Слой 1" xmlns="http://www.w3.org/2000/svg" viewBox="0 0 409.6 409.6"><defs><style>.cls-1{fill:#fff;}</style></defs><path class="cls-1" d="M1164.6,706.27V744.6H755V335h409.6V458.76c-.49-1.22-1-2.43-1.47-3.66-2.94-7.77-10.72-13.26-18.7-13.22-3.91,0-6.6,2.19-7,5.67s1.59,6.28,5.36,7.22c7.55,1.86,8.5,3.08,8.5,11q0,116.75,0,233.5c0,8.68-2.24,11-10.77,11q-166.46,0-332.89,0a51.63,51.63,0,0,1-10.32-.87,35.63,35.63,0,0,1-28-36.66c1-17.93,14.27-31.83,32-33.56,8.91-.88,10.25-2.38,10.25-11.55V454.92H816c9.58,0,19.16,0,28.74,0,5.91,0,9.08-2.38,9-6.64s-3.19-6.45-9.18-6.47H811.48v-5.15q0-35.32,0-70.65c0-6.83-2.48-9.13-9.2-8.83-26.22,1.13-46.43,22.67-46.45,49.81q-.09,133.11,0,266.23a52.37,52.37,0,0,0,1.24,11.85c5.43,23.45,24.67,38.29,49.77,38.3q167.24.07,334.48,0a33.28,33.28,0,0,0,8.27-1C1157.94,720.22,1162.13,714,1164.6,706.27ZM868.87,525.88q0,58.46,0,116.92c0,8.22,1.8,10,10.13,10h176.77a29.31,29.31,0,0,0,4-.1,6.53,6.53,0,0,0,4.94-9.88,23.53,23.53,0,0,0-2.07-2.93q-89.76-117.39-179.53-234.8c-2.48-3.24-4.84-6.78-9.66-5.24s-4.57,5.89-4.57,9.94Q868.88,467.82,868.87,525.88Zm211.87,14.73V628.4c0,12.76-.06,25.53,0,38.3.06,8.46,5.46,13.93,13.92,14.22,4,.14,8,.07,12,0,10.4-.09,15.59-5.34,15.59-15.85q0-124.7-.06-249.39a21,21,0,0,0-1.42-7.33c-4-10.41-8.21-20.74-12.3-31.12-1.29-3.28-3.06-6.09-7-6.09s-5.7,2.8-7,6.09c-4,10.13-8.17,20.18-12,30.37a25.92,25.92,0,0,0-1.65,8.88Q1080.65,478.56,1080.74,540.61Zm-78.62-85.69q27.74,0,55.47,0c5.05,0,7.92-2.38,8-6.37.1-4.16-2.84-6.6-8.09-6.72H949.36a24.59,24.59,0,0,0-4.38.2,6,6,0,0,0-5.4,6.39c0,3.42,2,5.73,5.48,6.33a26.58,26.58,0,0,0,4.38.18Z" transform="translate(-755 -335)"/><path d="M1164.6,706.27c-2.47,7.73-6.66,14-15,16.13a33.28,33.28,0,0,1-8.27,1q-167.23.06-334.48,0c-25.1,0-44.34-14.85-49.77-38.3a52.37,52.37,0,0,1-1.24-11.85q-.11-133.12,0-266.23c0-27.14,20.23-48.68,46.45-49.81,6.72-.3,9.19,2,9.2,8.83q0,35.33,0,70.65v5.15h33.08c6,0,9.11,2.23,9.18,6.47s-3.09,6.62-9,6.64c-9.58,0-19.16,0-28.74,0h-4.52V627.53c0,9.17-1.34,10.67-10.25,11.55-17.68,1.73-30.91,15.63-32,33.56a35.63,35.63,0,0,0,28,36.66,51.63,51.63,0,0,0,10.32.87q166.44.08,332.89,0c8.53,0,10.77-2.28,10.77-11q0-116.75,0-233.5c0-7.9-1-9.12-8.5-11-3.77-.94-5.77-3.63-5.36-7.22s3.09-5.65,7-5.67c8,0,15.76,5.45,18.7,13.22.47,1.23,1,2.44,1.47,3.66Zm-395.5-65.4c7.76-7.44,15.63-12.3,25-14,3.37-.62,4.11-2,4.11-5.22q-.13-123.15-.07-246.29v-4.57a72.83,72.83,0,0,0-7.4,2.5c-15,7-21.7,19.07-21.69,35.43q.1,113.57,0,227.13Z" transform="translate(-755 -335)"/><path d="M868.87,525.88q0-58,0-116.11c0-4-.36-8.37,4.57-9.94s7.18,2,9.66,5.24q89.74,117.42,179.53,234.8a23.53,23.53,0,0,1,2.07,2.93,6.53,6.53,0,0,1-4.94,9.88,29.31,29.31,0,0,1-4,.1H879c-8.33,0-10.13-1.76-10.13-10Q868.86,584.35,868.87,525.88Zm13.37,113.34h163.21c-54.52-71.28-108.59-142-163.21-213.42Z" transform="translate(-755 -335)"/><path d="M1080.74,540.61q0-62,.07-124.09a25.92,25.92,0,0,1,1.65-8.88c3.84-10.19,8-20.24,12-30.37,1.3-3.29,3.07-6.09,7-6.09s5.7,2.81,7,6.09c4.09,10.38,8.31,20.71,12.3,31.12a21,21,0,0,1,1.42,7.33q.12,124.69.06,249.39c0,10.51-5.19,15.76-15.59,15.85-4,0-8,.1-12,0-8.46-.29-13.86-5.76-13.92-14.22-.08-12.77,0-25.54,0-38.3ZM1094.26,427v212.2h14.41V427Zm14.4,226.11H1094c0,4.27-.13,8.25.1,12.21a3.31,3.31,0,0,0,2.09,2.42c4.06.24,8.14.11,12.47.11Zm-7.21-257.52-6.94,17.6h14Z" transform="translate(-755 -335)"/><path d="M1002.12,454.92H949.44a26.58,26.58,0,0,1-4.38-.18c-3.5-.6-5.46-2.91-5.48-6.33A6,6,0,0,1,945,442a24.59,24.59,0,0,1,4.38-.2h108.15c5.25.12,8.19,2.56,8.09,6.72-.09,4-3,6.36-8,6.37Q1029.86,455,1002.12,454.92Z" transform="translate(-755 -335)"/><path class="cls-1" d="M769.1,640.87v-5q0-113.57,0-227.13c0-16.36,6.73-28.39,21.69-35.43a72.83,72.83,0,0,1,7.4-2.5v4.57q0,123.14.07,246.29c0,3.24-.74,4.6-4.11,5.22C784.73,628.57,776.86,633.43,769.1,640.87Z" transform="translate(-755 -335)"/><path class="cls-1" d="M882.24,639.22V425.8c54.62,71.43,108.69,142.14,163.21,213.42Zm22-78.94q0,24.33,0,48.67c0,6.1,2.34,8.53,8.38,8.54q36.7.07,73.4,0c3.11,0,5.9-.67,7.43-3.66s.41-5.84-1.58-8.45q-37.35-48.75-74.62-97.55c-2.16-2.82-4.56-5-8.41-3.73-4,1.31-4.66,4.54-4.64,8.28C904.24,528.37,904.2,544.33,904.2,560.28Z" transform="translate(-755 -335)"/><path class="cls-1" d="M1094.26,427h14.41v212.2h-14.41Z" transform="translate(-755 -335)"/><path class="cls-1" d="M1108.66,653.08v14.74c-4.33,0-8.41.13-12.47-.11a3.31,3.31,0,0,1-2.09-2.42c-.23-4-.1-7.94-.1-12.21Z" transform="translate(-755 -335)"/><path class="cls-1" d="M1101.45,395.56l7,17.6h-14Z" transform="translate(-755 -335)"/><path d="M904.2,560.28c0-15.95,0-31.91,0-47.87,0-3.74.62-7,4.64-8.28,3.85-1.24,6.25.91,8.41,3.73q37.28,48.79,74.62,97.55c2,2.61,3.18,5.31,1.58,8.45s-4.32,3.66-7.43,3.66q-36.69,0-73.4,0c-6,0-8.37-2.44-8.38-8.54Q904.17,584.62,904.2,560.28ZM974.07,604,917.6,530.18V604Z" transform="translate(-755 -335)"/><path class="cls-1" d="M974.07,604H917.6V530.18Z" transform="translate(-755 -335)"/></svg>